<svg xmlns="http://www.w3.org/2000/svg" xmlns:xlink="http://www.w3.org/1999/xlink" width="1440" height="629" viewBox="0 0 1440 629"><defs><path id="a" d="M3270 1885.04s74.04.51 144-5.78 153.87-20.3 256-20.3 158.81 29.95 251.5 15.7c30.71-4.71 134.48-22.31 241-23.14 47.19-.37 160.01 9.45 262 15.85 101.99 6.4 285.5-16.37 285.5-16.37v269H3270z"/><path id="b" d="M3269 2075.89s102 61.8 242.16 2.8c140.15-59 215.96-101.68 402.73-101.68 186.76 0 313.38 106.13 510.53 2.1 197.14-104.03 287.58-89.43 287.58-89.43V2480H3269z"/></defs><use fill="#f7f7f9" xlink:href="#a" transform="translate(-3270 -1851)"/><use fill="#4ae396" xlink:href="#b" transform="translate(-3270 -1851)"/></svg>