<svg xmlns="http://www.w3.org/2000/svg" xmlns:xlink="http://www.w3.org/1999/xlink" width="491" height="572" viewBox="0 0 491 572"><defs><path id="a" d="M11537 211h490l-.49 572h-490z"/><path id="c" d="M12049.96 576.58s-26.48.49-51.5-5.53c-25.01-6.02-55.02-19.43-91.54-19.43s-56.8 28.66-89.94 15.03c-10.99-4.52-48.1-21.36-86.19-22.16-16.87-.35-57.22 9.05-93.7 15.18C11600.64 565.79 11535 544 11535 544v257.44h514.96z"/><path id="d" d="M11534 709.28s36.48 22.13 86.6 1c50.1-21.13 77.22-36.41 144-36.41 66.79 0 112.07 38 182.56.75 70.5-37.26 102.84-32.03 102.84-32.03V854h-516z"/><clipPath id="b"><use xlink:href="#a"/></clipPath></defs><use fill="#fafafc" xlink:href="#a" transform="translate(-11536 -211)"/><g clip-path="url(#b)" transform="translate(-11536 -211)"><use fill="#f4f5f9" xlink:href="#c"/></g><g clip-path="url(#b)" transform="translate(-11536 -211)"><use fill="#eaecf4" xlink:href="#d"/></g></svg>