<svg width="162" height="28" viewBox="0 0 162 28" xmlns="http://www.w3.org/2000/svg"><title>Shape</title><path d="M15.7 7.5c-.5-.2-1.5-.3-2.5-.3-3 0-5.4 2.2-6.3 3.7v16.2H0V1.4h6.6V4C8.1 2.1 11 .9 14.1.9c1 0 1.6.1 2.3.2l-.7 6.4zm27.2 15.6c-2.5 3-6.6 4.6-10.6 4.6-7.7 0-13.5-5.3-13.5-13.4C18.8 7.1 23.7.9 31.3.9c7.1 0 12.2 6 12.2 13.2 0 .7-.1 1.4-.2 2H25.5c.4 3.6 3.3 6.1 7 6.1 2.9 0 5.3-1.6 6.5-3l3.9 3.9zM36.5 11c-.2-2.3-2.3-4.5-5.1-4.5-2.9 0-5.2 2.2-5.5 4.5h10.6zm12.8 16.2V1.5H56v2.1C58 2 60.4 1 63.3 1c3.6 0 6.8 1.6 8.9 4.1 1.7 2 2.7 4.6 2.7 9v13.1H68V13.6c0-2.5-.6-3.9-1.5-4.8-.9-.9-2.3-1.4-3.9-1.4-2.9 0-5.3 1.9-6.3 3.2v16.7h-7v-.1zm54.9-4.1c-2.5 3-6.6 4.6-10.6 4.6-7.7 0-13.5-5.3-13.5-13.4C80.1 7.1 85 .9 92.6.9c7.1 0 12.2 6 12.2 13.2 0 .7-.1 1.4-.2 2H86.8c.4 3.6 3.3 6.1 7 6.1 2.9 0 5.3-1.6 6.5-3l3.9 3.9zM97.7 11c-.2-2.3-2.3-4.5-5.1-4.5-2.9 0-5.2 2.2-5.5 4.5h10.6zm32.8-5.3L118 21.4h13.5v5.8h-22.8V23L121 7.3h-11.3V1.5h20.7v4.2h.1zm31.6 21.5h-6.6v-2.1c-2.1 1.8-4.6 2.6-7.2 2.6-3.8 0-7.4-1.7-9.7-4.4-2-2.3-3.3-5.5-3.3-9 0-7.6 5.6-13.4 12.6-13.4 2.9 0 5.5 1 7.5 2.6V1.4h6.6v25.8h.1zm-6.9-16.7c-1.4-1.9-3.7-3.2-6.4-3.2-4 0-6.6 3.3-6.6 7.1 0 4 2.9 7 6.8 7 2.6 0 4.9-1.3 6.2-3.2v-7.7z" fill="#F7C655"/></svg>