<svg xmlns="http://www.w3.org/2000/svg" xmlns:xlink="http://www.w3.org/1999/xlink" width="490" height="613" viewBox="0 0 490 613"><defs><path id="a" d="M8323 1157V544h490v613z"/><path id="c" d="M8323 820.08s25.5.55 49.6-6.3 53-22.1 88.18-22.1c35.17 0 54.7 32.6 86.63 17.1 10.57-5.15 46.32-24.31 83-25.22 16.26-.4 55.12 10.3 90.25 17.27C8755.79 807.8 8819 783 8819 783v292.97h-496z"/><path id="d" d="M8819 947.39s-25.5.46-49.6-5.33c-24.1-5.8-53-18.71-88.18-18.71-35.17 0-54.7 27.6-86.63 14.47-10.57-4.35-46.32-20.58-83-21.35-16.26-.33-55.12 8.72-90.25 14.62C8386.21 937 8323 916 8323 916v248h496z"/><path id="e" d="M8323 1065.58s35.13 21.33 83.4.97c48.27-20.35 74.39-35.08 138.71-35.08 64.33 0 107.94 36.62 175.84.73 67.9-35.9 99.05-30.86 99.05-30.86V1205h-497z"/><clipPath id="b"><use xlink:href="#a"/></clipPath></defs><use fill="#fafafc" xlink:href="#a" transform="translate(-8323 -544)"/><g clip-path="url(#b)" transform="translate(-8323 -544)"><use fill="#f4f5f9" xlink:href="#c"/></g><g clip-path="url(#b)" transform="translate(-8323 -544)"><use fill="#eaecf4" xlink:href="#d"/></g><g clip-path="url(#b)" transform="translate(-8323 -544)"><use fill="#4ae396" xlink:href="#e"/></g></svg>