<?xml version="1.0" encoding="iso-8859-1"?>
<!-- Generator: Adobe Illustrator 19.0.0, SVG Export Plug-In . SVG Version: 6.00 Build 0)  -->
<svg xmlns="http://www.w3.org/2000/svg" xmlns:xlink="http://www.w3.org/1999/xlink" version="1.1" id="Capa_1" x="0px" y="0px" viewBox="0 0 512 512" style="enable-background:new 0 0 512 512;" xml:space="preserve" width="512px" height="512px">
<g>
	<g>
		<path d="M145.067,170.667h-76.8c-4.71,0-8.533,3.823-8.533,8.533s3.823,8.533,8.533,8.533h76.8c4.71,0,8.533-3.823,8.533-8.533    S149.777,170.667,145.067,170.667z" fill="#384979"/>
	</g>
</g>
<g>
	<g>
		<path d="M93.867,204.8h-25.6c-4.71,0-8.533,3.823-8.533,8.533c0,4.71,3.823,8.533,8.533,8.533h25.6    c4.71,0,8.533-3.823,8.533-8.533C102.4,208.623,98.577,204.8,93.867,204.8z" fill="#384979"/>
	</g>
</g>
<g>
	<g>
		<path d="M145.067,204.8H128c-4.71,0-8.533,3.823-8.533,8.533c0,4.71,3.823,8.533,8.533,8.533h17.067    c4.71,0,8.533-3.823,8.533-8.533C153.6,208.623,149.777,204.8,145.067,204.8z" fill="#384979"/>
	</g>
</g>
<g>
	<g>
		<path d="M128,136.533H68.267c-4.71,0-8.533,3.823-8.533,8.533c0,4.71,3.823,8.533,8.533,8.533H128c4.71,0,8.533-3.823,8.533-8.533    C136.533,140.356,132.71,136.533,128,136.533z" fill="#384979"/>
	</g>
</g>
<g>
	<g>
		<path d="M435.2,290.133h-68.267c-4.71,0-8.533,3.823-8.533,8.533s3.823,8.533,8.533,8.533H435.2c4.71,0,8.533-3.823,8.533-8.533    S439.91,290.133,435.2,290.133z" fill="#384979"/>
	</g>
</g>
<g>
	<g>
		<path d="M401.067,324.267h-34.133c-4.71,0-8.533,3.823-8.533,8.533c0,4.71,3.823,8.533,8.533,8.533h34.133    c4.71,0,8.533-3.823,8.533-8.533C409.6,328.09,405.777,324.267,401.067,324.267z" fill="#384979"/>
	</g>
</g>
<g>
	<g>
		<path d="M435.2,213.333h-68.267c-4.71,0-8.533,3.823-8.533,8.533c0,4.71,3.823,8.533,8.533,8.533H435.2    c4.71,0,8.533-3.823,8.533-8.533C443.733,217.156,439.91,213.333,435.2,213.333z" fill="#384979"/>
	</g>
</g>
<g>
	<g>
		<path d="M401.067,247.467h-34.133c-4.71,0-8.533,3.823-8.533,8.533s3.823,8.533,8.533,8.533h34.133    c4.71,0,8.533-3.823,8.533-8.533S405.777,247.467,401.067,247.467z" fill="#384979"/>
	</g>
</g>
<g>
	<g>
		<path d="M435.2,136.533h-68.267c-4.71,0-8.533,3.823-8.533,8.533c0,4.71,3.823,8.533,8.533,8.533H435.2    c4.71,0,8.533-3.823,8.533-8.533C443.733,140.356,439.91,136.533,435.2,136.533z" fill="#384979"/>
	</g>
</g>
<g>
	<g>
		<path d="M401.067,170.667h-34.133c-4.71,0-8.533,3.823-8.533,8.533s3.823,8.533,8.533,8.533h34.133    c4.71,0,8.533-3.823,8.533-8.533S405.777,170.667,401.067,170.667z" fill="#384979"/>
	</g>
</g>
<g>
	<g>
		<path d="M321.442,241.126c-3.499-3.166-8.9-2.867-12.049,0.631l-70.784,78.643L202.3,284.1c-3.337-3.337-8.73-3.337-12.066,0    l-42.667,42.667c-3.337,3.337-3.337,8.73,0,12.066c1.664,1.664,3.849,2.5,6.033,2.5c2.185,0,4.369-0.836,6.033-2.5l36.634-36.634    l36.634,36.642c1.647,1.655,3.857,2.569,6.255,2.492c2.338-0.06,4.557-1.084,6.118-2.825l76.8-85.333    C325.231,249.668,324.949,244.275,321.442,241.126z" fill="#384979"/>
	</g>
</g>
<g>
	<g>
		<path d="M158.933,326.144l-42.667-34.133c-3.115-2.492-7.543-2.492-10.658,0l-42.667,34.133    c-3.678,2.935-4.275,8.311-1.331,11.989c2.935,3.686,8.311,4.267,11.989,1.331l37.333-29.867l37.342,29.867    c1.57,1.254,3.456,1.869,5.325,1.869c2.492,0,4.975-1.092,6.664-3.2C163.209,334.456,162.62,329.088,158.933,326.144z" fill="#384979"/>
	</g>
</g>
<g>
	<g>
		<path d="M315.733,238.933h-42.667c-4.71,0-8.533,3.823-8.533,8.533s3.823,8.533,8.533,8.533h42.667    c4.71,0,8.533-3.823,8.533-8.533S320.444,238.933,315.733,238.933z" fill="#384979"/>
	</g>
</g>
<g>
	<g>
		<path d="M315.733,238.933c-4.71,0-8.533,3.823-8.533,8.533v42.667c0,4.71,3.823,8.533,8.533,8.533s8.533-3.823,8.533-8.533    v-42.667C324.267,242.756,320.444,238.933,315.733,238.933z" fill="#384979"/>
	</g>
</g>
<g>
	<g>
		<path d="M221.867,128c-28.237,0-51.2,22.963-51.2,51.2s22.963,51.2,51.2,51.2c28.237,0,51.2-22.963,51.2-51.2    S250.103,128,221.867,128z M221.867,213.333c-18.825,0-34.133-15.309-34.133-34.133s15.309-34.133,34.133-34.133    S256,160.375,256,179.2S240.691,213.333,221.867,213.333z" fill="#384979"/>
	</g>
</g>
<g>
	<g>
		<path d="M503.467,68.267H8.533C3.823,68.267,0,72.09,0,76.8v315.733c0,4.71,3.823,8.533,8.533,8.533h494.933    c4.71,0,8.533-3.823,8.533-8.533V76.8C512,72.09,508.177,68.267,503.467,68.267z M494.933,384H17.067V85.333h477.867V384z" fill="#384979"/>
	</g>
</g>
<g>
	<g>
		<path d="M486.4,384H25.6c-4.71,0-8.533,3.823-8.533,8.533v34.133c0,4.71,3.823,8.533,8.533,8.533h460.8    c4.71,0,8.533-3.823,8.533-8.533v-34.133C494.933,387.823,491.11,384,486.4,384z M477.867,418.133H34.133v-17.067h443.733V418.133    z" fill="#384979"/>
	</g>
</g>
<g>
	<g>
		<path d="M401.067,34.133H110.933c-4.71,0-8.533,3.823-8.533,8.533V76.8c0,4.71,3.823,8.533,8.533,8.533h290.133    c4.71,0,8.533-3.823,8.533-8.533V42.667C409.6,37.956,405.777,34.133,401.067,34.133z M392.533,68.267H119.467V51.2h273.067    V68.267z" fill="#384979"/>
	</g>
</g>
<g>
	<g>
		<path d="M256,0c-23.526,0-42.667,19.14-42.667,42.667c0,4.71,3.823,8.533,8.533,8.533h68.267c4.71,0,8.533-3.823,8.533-8.533    C298.667,19.14,279.526,0,256,0z M231.859,34.133c3.524-9.933,13.013-17.067,24.141-17.067c11.128,0,20.617,7.134,24.132,17.067    H231.859z" fill="#384979"/>
	</g>
</g>
<g>
	<g>
		<path d="M405.18,477.269l-29.423-54.647c-1.485-2.765-4.369-4.489-7.509-4.489h-34.133c-3.004,0-5.786,1.579-7.322,4.156    c-1.545,2.577-1.613,5.777-0.188,8.422l37.094,68.89c4.113,7.646,12.058,12.399,20.745,12.399c8.371,0,15.932-4.292,20.216-11.477    C408.96,493.329,409.148,484.642,405.18,477.269z M390.016,491.768c-0.563,0.956-2.244,3.166-5.572,3.166    c-2.389,0-4.582-1.306-5.717-3.413l-30.328-56.32h14.754l27.008,50.159C391.731,488.286,390.579,490.812,390.016,491.768z" fill="#384979"/>
	</g>
</g>
<g>
	<g>
		<path d="M273.067,418.133h-34.133c-4.71,0-8.533,3.823-8.533,8.533v61.773c0,12.996,10.564,23.561,23.561,23.561h4.079    c12.988,0,23.561-10.564,23.561-23.561v-61.773C281.6,421.956,277.777,418.133,273.067,418.133z M264.533,488.439    c0,3.584-2.91,6.494-6.494,6.494h-4.079c-3.584,0-6.494-2.91-6.494-6.494V435.2h17.067V488.439z" fill="#384979"/>
	</g>
</g>
<g>
	<g>
		<path d="M185.207,422.289c-1.536-2.577-4.318-4.156-7.322-4.156h-34.133c-3.132,0-6.025,1.724-7.509,4.48l-29.431,54.656    c-3.968,7.373-3.772,16.068,0.521,23.253c4.292,7.185,11.853,11.477,20.224,11.477c8.687,0,16.631-4.753,20.736-12.39    l37.103-68.898C186.82,428.066,186.752,424.866,185.207,422.289z M133.274,491.52c-1.135,2.108-3.328,3.413-5.717,3.413    c-3.319,0-5.018-2.219-5.581-3.166c-0.563-0.947-1.724-3.482-0.145-6.409l27.017-50.159h14.754L133.274,491.52z" fill="#384979"/>
	</g>
</g>
<g>
</g>
<g>
</g>
<g>
</g>
<g>
</g>
<g>
</g>
<g>
</g>
<g>
</g>
<g>
</g>
<g>
</g>
<g>
</g>
<g>
</g>
<g>
</g>
<g>
</g>
<g>
</g>
<g>
</g>
</svg>
