<?xml version="1.0" encoding="iso-8859-1"?>
<!-- Generator: Adobe Illustrator 21.0.0, SVG Export Plug-In . SVG Version: 6.00 Build 0)  -->
<svg xmlns="http://www.w3.org/2000/svg" xmlns:xlink="http://www.w3.org/1999/xlink" version="1.1" id="Capa_1" x="0px" y="0px" viewBox="0 0 480 480" style="enable-background:new 0 0 480 480;" xml:space="preserve" width="512px" height="512px">
<g>
	<g>
		<path d="M456,208H296c-13.255,0-24,10.745-24,24v224c0,13.255,10.745,24,24,24h160c13.255,0,24-10.745,24-24V232    C480,218.745,469.255,208,456,208z M368,464h-72c-4.418,0-8-3.582-8-8v-56h80V464z M368,384h-80v-64h80V384z M464,456    c0,4.418-3.582,8-8,8h-72v-64h80V456z M464,384h-80v-64h80V384z M464,304H288v-72c0-4.418,3.582-8,8-8h160c4.418,0,8,3.582,8,8    V304z" fill="#FFFFFF"/>
	</g>
</g>
<g>
	<g>
		<path d="M440,240H312c-4.418,0-8,3.582-8,8v32c0,4.418,3.582,8,8,8h128c4.418,0,8-3.582,8-8v-32C448,243.582,444.418,240,440,240z     M432,272H320v-16h112V272z" fill="#FFFFFF"/>
	</g>
</g>
<g>
	<g>
		<polygon points="336,344 336,328 320,328 320,344 304,344 304,360 320,360 320,376 336,376 336,360 352,360 352,344   " fill="#FFFFFF"/>
	</g>
</g>
<g>
	<g>
		<rect x="400" y="344" width="48" height="16" fill="#FFFFFF"/>
	</g>
</g>
<g>
	<g>
		<polygon points="350.624,421.656 339.312,410.344 328,421.656 316.688,410.344 305.376,421.656 316.688,432.968 305.376,444.28     316.688,455.592 328,444.28 339.312,455.592 350.624,444.28 339.312,432.968   " fill="#FFFFFF"/>
	</g>
</g>
<g>
	<g>
		<rect x="400" y="424" width="48" height="16" fill="#FFFFFF"/>
	</g>
</g>
<g>
	<g>
		<rect x="416" y="444" width="16" height="8" fill="#FFFFFF"/>
	</g>
</g>
<g>
	<g>
		<rect x="416" y="412" width="16" height="8" fill="#FFFFFF"/>
	</g>
</g>
<g>
	<g>
		<path d="M320,0H88v0.072c-2.112-0.025-4.148,0.793-5.656,2.272l-80,80C0.863,83.851,0.045,85.887,0.072,88H0v376    c0,8.837,7.163,16,16,16h240v-16h-48v-24h16c4.418,0,8-3.582,8-8v-40c0-4.418-3.582-8-8-8h-16v-24h16c4.418,0,8-3.582,8-8v-40    c0-4.418-3.582-8-8-8h-0.208c20.243-15.048,32.184-38.777,32.208-64c0.086-44.183-35.662-80.069-79.844-80.155    S96.086,195.507,96,239.689c-0.049,25.327,11.897,49.181,32.208,64.311H64c-4.418,0-8,3.582-8,8v32H40c-4.418,0-8,3.582-8,8v40    c0,4.418,3.582,8,8,8h16v24H40c-4.418,0-8,3.582-8,8v32H16V96h64c8.837,0,16-7.163,16-16V16h224v176h16V16    C336,7.163,328.837,0,320,0z M216,400v24H72v-24H216z M112,240c0-35.346,28.654-64,64-64c35.346,0,64,28.654,64,64    c0,35.346-28.654,64-64,64C140.67,303.96,112.04,275.33,112,240z M72,320h144v24H72V320z M48,384v-24h144v24H64H48z M48,440h144    v24H48V440z M80,80H27.312L80,27.312V80z" fill="#FFFFFF"/>
	</g>
</g>
<g>
	<g>
		<path d="M176,216h24v-16h-16v-8h-16v9.472c-12.473,4.393-19.023,18.066-14.629,30.539c3.38,9.596,12.455,16.009,22.629,15.989    c4.418,0,8,3.582,8,8s-3.582,8-8,8h-24v16h16v8h16v-9.472c12.473-4.393,19.023-18.066,14.629-30.539    c-3.38-9.596-12.455-16.009-22.629-15.989c-4.418,0-8-3.582-8-8S171.582,216,176,216z" fill="#FFFFFF"/>
	</g>
</g>
<g>
	<g>
		<path d="M448,40h-16c0-4.418-3.582-8-8-8h-8V8c0-4.418-3.582-8-8-8h-32c-4.418,0-8,3.582-8,8v24h-8c-4.418,0-8,3.582-8,8v152h16    V48h48v144h16V56h16v104h16V56C464,47.163,456.837,40,448,40z M400,32h-16V16h16V32z" fill="#FFFFFF"/>
	</g>
</g>
<g>
	<g>
		<rect x="120" y="64" width="136" height="16" fill="#FFFFFF"/>
	</g>
</g>
<g>
	<g>
		<rect x="32" y="112" width="272" height="16" fill="#FFFFFF"/>
	</g>
</g>
<g>
	<g>
		<rect x="32" y="144" width="96" height="16" fill="#FFFFFF"/>
	</g>
</g>
<g>
	<g>
		<rect x="232" y="144" width="72" height="16" fill="#FFFFFF"/>
	</g>
</g>
<g>
</g>
<g>
</g>
<g>
</g>
<g>
</g>
<g>
</g>
<g>
</g>
<g>
</g>
<g>
</g>
<g>
</g>
<g>
</g>
<g>
</g>
<g>
</g>
<g>
</g>
<g>
</g>
<g>
</g>
</svg>
