<?xml version="1.0" encoding="iso-8859-1"?>
<!-- Generator: Adobe Illustrator 19.0.0, SVG Export Plug-In . SVG Version: 6.00 Build 0)  -->
<svg xmlns="http://www.w3.org/2000/svg" xmlns:xlink="http://www.w3.org/1999/xlink" version="1.1" id="Layer_1" x="0px" y="0px" viewBox="0 0 502 502" style="enable-background:new 0 0 502 502;" xml:space="preserve" width="512px" height="512px">
<g>
	<g>
		<g>
			<path d="M228.127,452.62l-17.277-76.08c-0.101-0.443-0.232-0.88-0.393-1.306c-3.433-9.126-7.532-18.103-12.186-26.68     c-0.073-0.135-0.149-0.268-0.229-0.399l-71.025-117.674c-4.389-8.42-11.761-14.672-20.802-17.625     c-6.883-2.249-14.112-2.382-20.928-0.463L71.956,99.24c-2.331-19.769-20.313-33.958-40.077-31.627     C12.11,69.943-2.078,87.921,0.25,107.69c0.005,0.036,0.009,0.072,0.014,0.108l13.902,107.901     c3.512,27.252,12.34,53.087,26.239,76.786l68.998,117.652c0.073,0.125,0.149,0.249,0.229,0.371     c3.846,5.949,6.711,12.44,8.517,19.292l10.927,41.493c4.346,16.497,19.962,26.345,41.772,26.345h22.962     c9.842,0,19.345-4.118,26.074-11.298c6.671-7.117,10-16.345,9.375-25.983C229.095,457.827,228.715,455.229,228.127,452.62z      M205.291,472.663c-2.963,3.162-7.147,4.975-11.481,4.975h-22.962c-7.252,0-19.811-1.486-22.433-11.439l-10.927-41.493     c-2.325-8.827-6.006-17.192-10.939-24.868L57.657,282.367c-12.53-21.365-20.489-44.656-23.655-69.225l-13.895-107.84     c-1.011-8.799,5.311-16.79,14.112-17.827c8.808-1.036,16.835,5.288,17.873,14.106l14.561,123.581     c-7.647,10.139-9.675,23.973-4.216,36.323c0.263,0.595,1.066,2.197,1.19,2.403l28.532,47.315     c1.878,3.114,5.184,4.837,8.573,4.837c1.758,0,3.539-0.464,5.154-1.438c4.729-2.852,6.251-8.998,3.399-13.728l-28.322-46.967     c-0.082-0.169-0.16-0.339-0.235-0.509c-3.384-7.656-0.302-16.585,6.998-20.588c3.834-1.942,8.194-2.278,12.278-0.944     c4.088,1.335,7.412,4.183,9.358,8.018c0.11,0.218,0.229,0.432,0.355,0.642l71.08,117.764c4.066,7.518,7.664,15.37,10.699,23.354     l17.121,75.39c0.354,1.574,0.584,3.126,0.68,4.616C209.564,465.713,208.14,469.624,205.291,472.663z" fill="#FFFFFF"/>
			<path d="M121.969,321.906c-2.853-4.73-8.998-6.252-13.728-3.399c-4.729,2.852-6.251,8.998-3.399,13.728l6.341,10.515     c1.878,3.114,5.184,4.837,8.573,4.837c1.758,0,3.539-0.464,5.154-1.438c4.729-2.852,6.251-8.998,3.399-13.728L121.969,321.906z" fill="#FFFFFF"/>
			<path d="M470.122,67.613c-19.76-2.328-37.748,11.857-40.078,31.627L416.711,212.4c-16.113-4.509-33.727,2.731-41.728,18.081     l-71.026,117.674c-0.079,0.131-0.155,0.264-0.229,0.399c-4.653,8.578-8.753,17.554-12.186,26.68     c-0.16,0.426-0.292,0.863-0.393,1.306l-17.279,76.091c-0.483,2.137-0.827,4.29-1.024,6.4c-0.916,9.826,2.384,19.662,9.056,26.984     c6.729,7.386,16.318,11.622,26.309,11.622h22.941c21.811,0,37.427-9.849,41.772-26.346l10.927-41.492     c1.806-6.853,4.671-13.343,8.517-19.292c0.079-0.122,0.155-0.245,0.229-0.371l68.998-117.652     c13.899-23.699,22.728-49.534,26.239-76.787l13.902-107.901c0.005-0.036,0.009-0.072,0.014-0.108     C504.078,87.921,489.89,69.943,470.122,67.613z M481.893,105.302l-13.895,107.84c-3.166,24.569-11.125,47.86-23.655,69.226     l-68.892,117.47c-4.934,7.675-8.614,16.041-10.939,24.869l-10.927,41.491c-2.622,9.954-15.181,11.44-22.433,11.44h-22.941     c-4.44,0-8.533-1.808-11.524-5.091c-2.933-3.219-4.327-7.359-3.926-11.658c0.117-1.256,0.325-2.552,0.616-3.84l17.124-75.403     c3.035-7.984,6.633-15.837,10.699-23.354l71.08-117.764c0.126-0.209,0.245-0.423,0.355-0.642     c1.946-3.835,5.271-6.683,9.358-8.018c4.084-1.335,8.444-0.999,12.278,0.944c7.3,4.003,10.381,12.932,6.998,20.587     c-0.076,0.171-0.154,0.341-0.236,0.511l-28.322,46.967c-2.852,4.729-1.33,10.875,3.399,13.728     c1.616,0.974,3.396,1.438,5.154,1.438c3.39,0,6.695-1.724,8.573-4.837l28.532-47.315c0.124-0.206,0.241-0.416,0.35-0.63     c0.299-0.586,0.578-1.177,0.842-1.774c5.458-12.35,3.43-26.183-4.217-36.322l14.562-123.581     c1.039-8.817,9.063-15.139,17.874-14.106C476.582,88.513,482.903,96.504,481.893,105.302z" fill="#FFFFFF"/>
			<path d="M393.759,318.507c-4.73-2.852-10.875-1.329-13.728,3.399l-6.341,10.515c-2.852,4.729-1.33,10.875,3.399,13.728     c1.615,0.974,3.396,1.438,5.154,1.438c3.39,0,6.695-1.724,8.573-4.837l6.341-10.515     C400.01,327.505,398.488,321.359,393.759,318.507z" fill="#FFFFFF"/>
			<path d="M145.604,106.589l7.868-5.949v125.069c0,5.523,4.478,10,10,10h175.055c5.522,0,10-4.477,10-10v-125.07l7.868,5.949     c1.805,1.365,3.923,2.024,6.023,2.024c3.027,0,6.019-1.369,7.984-3.969c3.331-4.405,2.46-10.677-1.945-14.008L257.031,6.386     c-3.568-2.698-8.494-2.698-12.063,0l-111.427,84.25c-4.405,3.331-5.276,9.603-1.945,14.008     C134.926,109.049,141.199,109.921,145.604,106.589z M270.528,215.708h-39.055V143.43h39.055V215.708z M173.472,85.517L251,26.899     l77.527,58.618v130.191h-38V133.43c0-5.523-4.478-10-10-10h-59.055c-5.522,0-10,4.477-10,10v82.278h-38V85.517z" fill="#FFFFFF"/>
		</g>
	</g>
</g>
<g>
</g>
<g>
</g>
<g>
</g>
<g>
</g>
<g>
</g>
<g>
</g>
<g>
</g>
<g>
</g>
<g>
</g>
<g>
</g>
<g>
</g>
<g>
</g>
<g>
</g>
<g>
</g>
<g>
</g>
</svg>
