<?xml version="1.0" encoding="iso-8859-1"?>
<!-- Generator: Adobe Illustrator 19.0.0, SVG Export Plug-In . SVG Version: 6.00 Build 0)  -->
<svg xmlns="http://www.w3.org/2000/svg" xmlns:xlink="http://www.w3.org/1999/xlink" version="1.1" id="Layer_1" x="0px" y="0px" viewBox="0 0 512 512" style="enable-background:new 0 0 512 512;" xml:space="preserve" width="512px" height="512px">
<g>
	<g>
		<g>
			<path d="M332.8,238.933c4.719,0,8.533-3.823,8.533-8.533v-68.267c0-4.71-3.814-8.533-8.533-8.533h-51.2     c-4.719,0-8.533,3.823-8.533,8.533V230.4c0,4.71,3.814,8.533,8.533,8.533H332.8z M290.133,170.667h34.133v51.2h-34.133V170.667z" fill="#FFFFFF"/>
			<path d="M107.665,161.485c1.058,0.435,2.167,0.649,3.268,0.649c2.219,0,4.403-0.87,6.033-2.5L256.026,20.582l139.008,139.051     c2.449,2.449,6.11,3.183,9.301,1.852c3.183-1.323,5.265-4.437,5.265-7.885v-128c0-4.71-3.814-8.533-8.533-8.533h-85.333     c-4.719,0-8.533,3.823-8.533,8.533c0,4.71,3.814,8.533,8.533,8.533h76.8v98.859L262.084,2.5c-3.2-3.2-8.917-3.2-12.117,0     l-130.5,130.5V34.133h42.667c4.719,0,8.533-3.823,8.533-8.533v-8.533h17.067V25.6c0,4.71,3.814,8.533,8.533,8.533     S204.8,30.31,204.8,25.6V8.533c0-4.71-3.814-8.533-8.533-8.533h-34.133c-4.719,0-8.533,3.823-8.533,8.533v8.533h-42.667     c-4.719,0-8.533,3.823-8.533,8.533v128C102.4,157.047,104.474,160.162,107.665,161.485z" fill="#FFFFFF"/>
			<path d="M128,166.4c-4.719,0-8.533,3.823-8.533,8.533V281.6c0,4.71,3.814,8.533,8.533,8.533h256c4.719,0,8.533-3.823,8.533-8.533     V174.933c0-4.71-3.814-8.533-8.533-8.533c-4.719,0-8.533,3.823-8.533,8.533v98.133H256V162.133c0-4.71-3.814-8.533-8.533-8.533     H179.2c-4.719,0-8.533,3.823-8.533,8.533v110.933h-34.133v-98.133C136.533,170.223,132.719,166.4,128,166.4z M187.733,170.667     h51.2v42.667H230.4c-4.719,0-8.533,3.823-8.533,8.533c0,4.71,3.814,8.533,8.533,8.533h8.533v42.667h-51.2V170.667z" fill="#FFFFFF"/>
			<path d="M477.867,153.6c-18.825,0-34.133,15.309-34.133,34.133v67.558c0,4.71,3.814,8.533,8.533,8.533     c4.719,0,8.533-3.823,8.533-8.533v-67.558c0-9.412,7.654-17.067,17.067-17.067s17.067,7.654,17.067,17.067v128     c0,23.637-13.508,35.686-14.566,36.634l-76.8,76.8c-3.337,3.337-3.337,8.73,0,12.066c1.664,1.664,3.849,2.5,6.033,2.5     c2.185,0,4.369-0.836,6.033-2.5l76.271-76.314c0.819-0.691,20.096-17.323,20.096-49.186v-128     C512,168.909,496.691,153.6,477.867,153.6z" fill="#FFFFFF"/>
			<path d="M452.267,460.8H341.333v-68.267c0-23.33,13.594-35.738,14.566-36.634l59.733-59.733c3.388-3.388,7.62-5.35,11.904-5.521     c4.301-0.196,8.081,1.382,11.196,4.488c2.953,2.953,4.506,6.613,4.506,10.598c0,4.497-1.963,8.934-5.538,12.501L395.034,360.9     c-3.337,3.337-3.337,8.73,0,12.066c3.336,3.337,8.73,3.337,12.066,0l42.658-42.658c6.801-6.784,10.547-15.505,10.547-24.568     c0.009-8.491-3.371-16.538-9.506-22.673c-6.485-6.477-15.061-9.822-23.962-9.481c-8.585,0.358-16.845,4.087-23.27,10.513     l-59.29,59.324c-0.819,0.708-20.011,17.707-20.011,49.109V460.8h-8.533c-4.719,0-8.533,3.823-8.533,8.533v34.133     c0,4.71,3.814,8.533,8.533,8.533s8.533-3.823,8.533-8.533v-25.6h119.467v25.6c0,4.71,3.814,8.533,8.533,8.533     c4.719,0,8.533-3.823,8.533-8.533v-34.133C460.8,464.623,456.986,460.8,452.267,460.8z" fill="#FFFFFF"/>
			<path d="M196.267,460.8h-8.533v-68.267c0-31.403-19.191-48.401-19.567-48.7L108.442,284.1     c-6.417-6.426-14.686-10.155-23.262-10.513c-9.122-0.341-17.493,2.995-23.979,9.481c-6.485,6.477-9.839,14.993-9.472,23.962     c0.35,8.585,4.079,16.853,10.505,23.27l42.667,42.667c3.337,3.337,8.73,3.337,12.066,0c3.336-3.337,3.336-8.73,0-12.066     L74.3,318.234c-3.379-3.388-5.35-7.612-5.521-11.904c-0.179-4.215,1.382-8.081,4.489-11.196     c3.115-3.115,7.151-4.685,11.204-4.488c4.292,0.171,8.508,2.133,11.895,5.521l60.134,60.109     c0.572,0.521,14.165,12.928,14.165,36.258V460.8H59.733c-4.719,0-8.533,3.823-8.533,8.533v34.133c0,4.71,3.814,8.533,8.533,8.533     s8.533-3.823,8.533-8.533v-25.6h119.467v25.6c0,4.71,3.814,8.533,8.533,8.533s8.533-3.823,8.533-8.533v-34.133     C204.8,464.623,200.986,460.8,196.267,460.8z" fill="#FFFFFF"/>
			<path d="M102.4,443.733c2.185,0,4.369-0.836,6.033-2.5c3.337-3.337,3.337-8.73,0-12.066l-77.286-77.244     c-0.572-0.503-14.08-12.553-14.08-36.19v-128c0-9.412,7.654-17.067,17.067-17.067c9.412,0,17.067,7.654,17.067,17.067v67.558     c0,4.71,3.814,8.533,8.533,8.533s8.533-3.823,8.533-8.533v-67.558c0-18.825-15.309-34.133-34.133-34.133     C15.309,153.6,0,168.909,0,187.733v128c0,31.863,19.277,48.495,19.567,48.7l76.8,76.8     C98.031,442.897,100.215,443.733,102.4,443.733z" fill="#FFFFFF"/>
		</g>
	</g>
</g>
<g>
</g>
<g>
</g>
<g>
</g>
<g>
</g>
<g>
</g>
<g>
</g>
<g>
</g>
<g>
</g>
<g>
</g>
<g>
</g>
<g>
</g>
<g>
</g>
<g>
</g>
<g>
</g>
<g>
</g>
</svg>
