<?xml version="1.0" encoding="iso-8859-1"?>
<!-- Generator: Adobe Illustrator 16.0.0, SVG Export Plug-In . SVG Version: 6.00 Build 0)  -->
<!DOCTYPE svg PUBLIC "-//W3C//DTD SVG 1.1//EN" "http://www.w3.org/Graphics/SVG/1.1/DTD/svg11.dtd">
<svg xmlns="http://www.w3.org/2000/svg" xmlns:xlink="http://www.w3.org/1999/xlink" version="1.1" id="Capa_1" x="0px" y="0px" width="512px" height="512px" viewBox="0 0 612 612" style="enable-background:new 0 0 612 612;" xml:space="preserve">
<g>
	<g>
		<g>
			<path d="M553.02,19.129H58.98c-10.939,0-20.922,4.503-28.135,11.716c-7.213,7.213-11.716,17.196-11.716,28.115v89.228h573.742     V58.96c0-10.939-4.503-20.902-11.716-28.115C573.941,23.632,563.959,19.129,553.02,19.129L553.02,19.129z M58.98,0h494.04     c16.221,0,30.984,6.635,41.665,17.315C605.364,27.996,612,42.741,612,58.96v98.553v0.239c0,5.28-4.284,9.564-9.564,9.564H9.823     H9.564C4.284,167.336,0,163.033,0,157.772V58.96c0-16.22,6.635-30.965,17.315-41.645S42.761,0,58.98,0L58.98,0z M0,207.168     c0-5.28,4.284-9.564,9.564-9.564c5.28,0,9.564,4.284,9.564,9.564V553.02c0,10.939,4.503,20.923,11.716,28.137     c7.213,7.213,17.196,11.716,28.135,11.716H553.02c10.939,0,20.923-4.483,28.137-11.716c7.213-7.214,11.716-17.196,11.716-28.137     V207.168c0-5.28,4.284-9.564,9.563-9.564c5.28,0,9.564,4.284,9.564,9.564V553.02c0,16.221-6.636,30.984-17.314,41.665     C584.004,605.364,569.239,612,553.02,612H58.98c-16.22,0-30.985-6.636-41.665-17.315C6.635,584.004,0,569.239,0,553.02V207.168z" fill="#FFFFFF"/>
			<path d="M83.688,241.44c-5.28,0-9.564-4.284-9.564-9.564c0-5.28,4.284-9.564,9.564-9.564h444.644c5.26,0,9.564,4.284,9.564,9.564     c0,5.28-4.284,9.564-9.564,9.564H83.688z" fill="#FFFFFF"/>
			<path d="M83.688,300.401c-5.28,0-9.564-4.284-9.564-9.564c0-5.28,4.284-9.564,9.564-9.564h444.644     c5.26,0,9.564,4.284,9.564,9.564c0,5.28-4.284,9.564-9.564,9.564H83.688z" fill="#FFFFFF"/>
			<path d="M83.688,359.381c-5.28,0-9.564-4.284-9.564-9.563c0-5.28,4.284-9.564,9.564-9.564h444.644     c5.26,0,9.564,4.284,9.564,9.564c0,5.261-4.284,9.563-9.564,9.563H83.688z" fill="#FFFFFF"/>
			<path d="M83.688,418.361c-5.28,0-9.564-4.305-9.564-9.564c0-5.28,4.284-9.563,9.564-9.563h444.644     c5.26,0,9.564,4.283,9.564,9.563s-4.284,9.564-9.564,9.564H83.688z" fill="#FFFFFF"/>
			<path d="M83.688,477.321c-5.28,0-9.564-4.283-9.564-9.563c0-5.281,4.284-9.563,9.564-9.563h321.125     c5.279,0,9.563,4.282,9.563,9.563c0,5.28-4.284,9.563-9.563,9.563H83.688z" fill="#FFFFFF"/>
			<path d="M83.688,93.213c-5.28,0-9.564-4.284-9.564-9.564c0-5.28,4.284-9.564,9.564-9.564h444.644c5.26,0,9.564,4.284,9.564,9.564     c0,5.28-4.284,9.564-9.564,9.564H83.688z" fill="#FFFFFF"/>
		</g>
	</g>
</g>
<g>
</g>
<g>
</g>
<g>
</g>
<g>
</g>
<g>
</g>
<g>
</g>
<g>
</g>
<g>
</g>
<g>
</g>
<g>
</g>
<g>
</g>
<g>
</g>
<g>
</g>
<g>
</g>
<g>
</g>
</svg>
